Coordinates
nRows=131
nColumns=2
inDegrees=yes
endheader
time	ankle_angle_r	
2.8629	 -0.439270	
2.93448	 -0.473022	
3.00605	 -0.495582	
3.07762	 -0.473022	
3.14919	 -0.457764	
3.22077	 -0.494991	
3.29234	 -0.518799	
3.36391	 -0.468332	
3.43548	 -0.499204	
3.50706	 -0.528951	
3.57863	 -0.534058	
3.6502	 -0.513276	
3.72177	 -0.482550	
3.79335	 -0.478961	
3.86492	 -0.433393	
3.93649	 -0.442505	
4.00806	 -0.510103	
4.07964	 -0.444222	
4.15121	 -0.420267	
4.22278	 -0.411987	
4.29435	 -0.442505	
4.36593	 -0.480678	
4.4375	 -0.442505	
4.50907	 -0.465003	
4.58065	 -0.434278	
4.65222	 -0.466199	
4.72379	 -0.418603	
4.79536	 -0.457764	
4.86694	 -0.473022	
4.93851	 -0.427246	
5.01008	 -0.480898	
5.08165	 -0.488281	
5.15323	 -0.543949	
5.2248	 -0.477962	
5.29637	 -0.432198	
5.36794	 -0.513027	
5.43952	 -0.473022	
5.51109	 -0.510144	
5.58266	 -0.431365	
5.65423	 -0.449941	
5.72581	 -0.408284	
5.79738	 -0.396729	
5.86895	 -0.433821	
5.94052	 -0.439426	
6.0121	 -0.467280	
6.08367	 -0.386796	
6.15524	 -0.429701	
6.22681	 -0.440258	
6.29839	 -0.381470	
6.36996	 -0.425415	
6.44153	 -0.442505	
6.5131	 -0.471607	
6.58468	 -0.440091	
6.65625	 -0.471024	
6.72782	 -0.503540	
6.7994	 -0.473022	
6.87097	 -0.458139	
6.94254	 -0.473022	
7.01411	 -0.457805	
7.08569	 -0.396479	
7.15726	 -0.381470	
7.22883	 -0.456434	
7.3004	 -0.411114	
7.37198	 -0.411987	
7.44355	 -0.368789	
7.51512	 -0.442505	
7.58669	 -0.440800	
7.65827	 -0.381470	
7.72984	 -0.425125	
7.80141	 -0.411987	
7.87298	 -0.429783	
7.94456	 -0.414733	
8.01613	 -0.470069	
8.0877	 -0.476184	
8.15927	 -0.445874	
8.23085	 -0.488281	
8.30242	 -0.518799	
8.37399	 -0.492275	
8.44556	 -0.416189	
8.51714	 -0.483872	
8.58871	 -0.492899	
8.66028	 -0.427246	
8.73185	 -0.417021	
8.80343	 -0.422005	
8.875	 -0.446865	
8.94657	 -0.411987	
9.01815	 -0.375604	
9.08972	 -0.470060	
9.16129	 -0.427246	
9.23286	 -0.440225	
9.30444	 -0.405290	
9.37601	 -0.488281	
9.44758	 -0.455701	
9.51915	 -0.419309	
9.59073	 -0.442704	
9.6623	 -0.442722	
9.73387	 -0.450451	
9.80544	 -0.388575	
9.87702	 -0.449402	
9.94859	 -0.479711	
10.0202	 -0.407803	
10.0917	 -0.427246	
10.1633	 -0.415116	
10.2349	 -0.512942	
10.3065	 -0.436856	
10.378	 -0.463204	
10.4496	 -0.493514	
10.5212	 -0.518799	
10.5927	 -0.468206	
10.6643	 -0.447114	
10.7359	 -0.523199	
10.8075	 -0.490962	
10.879	 -0.415292	
10.9506	 -0.396729	
11.0222	 -0.396729	
11.0937	 -0.430607	
11.1653	 -0.381470	
11.2369	 -0.473022	
11.3085	 -0.473022	
11.38	 -0.411987	
11.4516	 -0.442505	
11.5232	 -0.473022	
11.5948	 -0.537866	
11.6663	 -0.501844	
11.7379	 -0.508005	
11.8095	 -0.518799	
11.881	 -0.488281	
11.9526	 -0.505269	
12.0242	 -0.459076	
12.0958	 -0.548868	
12.1673	 -0.518078	
